<svg xmlns="http://www.w3.org/2000/svg" xmlns:xlink="http://www.w3.org/1999/xlink" width="160" zoomAndPan="magnify" viewBox="0 0 120 37.5" height="50" preserveAspectRatio="xMidYMid meet" version="1.2"><defs><clipPath id="85027b0848"><path d="M 25.046875 6.839844 L 27.949219 6.839844 L 27.949219 9.742188 L 25.046875 9.742188 Z M 25.046875 6.839844 "/></clipPath><clipPath id="60fa5d12e3"><path d="M 27.417969 7.230469 C 28.011719 7.730469 28.085938 8.613281 27.589844 9.207031 C 27.09375 9.800781 26.203125 9.878906 25.609375 9.378906 C 25.015625 8.882812 24.941406 7.996094 25.4375 7.402344 C 25.9375 6.808594 26.824219 6.730469 27.417969 7.230469 "/></clipPath><clipPath id="e22c791216"><path d="M 0.046875 0.839844 L 2.949219 0.839844 L 2.949219 3.742188 L 0.046875 3.742188 Z M 0.046875 0.839844 "/></clipPath><clipPath id="3d66a84cac"><path d="M 2.417969 1.230469 C 3.011719 1.730469 3.085938 2.613281 2.589844 3.207031 C 2.09375 3.800781 1.203125 3.878906 0.609375 3.378906 C 0.015625 2.882812 -0.0585938 1.996094 0.4375 1.402344 C 0.9375 0.808594 1.824219 0.730469 2.417969 1.230469 "/></clipPath><clipPath id="66bbd143cc"><rect x="0" width="3" y="0" height="4"/></clipPath><clipPath id="f1c73bcb0f"><path d="M 25.933594 4.90625 L 29.964844 4.90625 L 29.964844 9.5 L 25.933594 9.5 Z M 25.933594 4.90625 "/></clipPath><clipPath id="e41c7a546e"><path d="M 29.050781 8.660156 C 29.070312 8.695312 29.066406 8.742188 29.039062 8.773438 C 29.007812 8.804688 28.964844 8.816406 28.925781 8.808594 L 28.917969 8.816406 L 28.609375 9.484375 L 28.246094 9.183594 L 28.847656 8.761719 L 28.859375 8.75 C 28.84375 8.714844 28.84375 8.667969 28.875 8.636719 C 28.902344 8.605469 28.945312 8.59375 28.984375 8.601562 L 29.492188 8 L 29.128906 7.34375 L 29.304688 7.9375 L 28.882812 7.796875 L 28.230469 8.578125 C 28.320312 8 28.113281 7.382812 27.628906 6.980469 C 27.15625 6.582031 26.53125 6.484375 25.976562 6.65625 L 26.617188 5.898438 L 26.105469 4.949219 L 28.609375 5.824219 L 29.902344 8.140625 L 29.582031 8.03125 L 29.046875 8.664062 "/></clipPath><clipPath id="ba1c3d0d78"><path d="M 0.933594 0.90625 L 4.949219 0.90625 L 4.949219 5.5 L 0.933594 5.5 Z M 0.933594 0.90625 "/></clipPath><clipPath id="60f24889bf"><path d="M 4.050781 4.660156 C 4.070312 4.695312 4.066406 4.742188 4.039062 4.773438 C 4.007812 4.804688 3.964844 4.816406 3.925781 4.808594 L 3.917969 4.816406 L 3.609375 5.484375 L 3.246094 5.183594 L 3.847656 4.761719 L 3.859375 4.75 C 3.84375 4.714844 3.84375 4.667969 3.875 4.636719 C 3.902344 4.605469 3.945312 4.59375 3.984375 4.601562 L 4.492188 4 L 4.128906 3.34375 L 4.304688 3.9375 L 3.882812 3.796875 L 3.230469 4.578125 C 3.320312 4 3.113281 3.382812 2.628906 2.980469 C 2.15625 2.582031 1.53125 2.484375 0.976562 2.65625 L 1.617188 1.898438 L 1.105469 0.949219 L 3.609375 1.824219 L 4.902344 4.140625 L 4.582031 4.03125 L 4.046875 4.664062 "/></clipPath><clipPath id="d25850e1a9"><rect x="0" width="5" y="0" height="6"/></clipPath><clipPath id="cbb0836399"><path d="M 22.304688 4.257812 L 31.09375 4.257812 L 31.09375 22.96875 L 22.304688 22.96875 Z M 22.304688 4.257812 "/></clipPath><clipPath id="5677ec858d"><path d="M 22.425781 4.277344 C 22.148438 5.769531 22.511719 7.394531 23.050781 9.910156 C 23.59375 12.421875 23.285156 13.804688 23.289062 15.539062 C 23.308594 19.601562 25.542969 20.21875 25.542969 20.21875 C 24.460938 19.007812 24.808594 16.148438 24.808594 16.148438 C 27.25 22.238281 31.042969 22.902344 31.042969 22.902344 C 26.597656 19.785156 26.785156 12.628906 26.785156 12.628906 C 29.148438 13.292969 30.179688 15.84375 30.179688 15.84375 C 30.265625 13.289062 28.835938 11.148438 25.546875 9.175781 C 22.925781 7.605469 22.425781 4.28125 22.425781 4.28125 Z M 22.425781 4.277344 "/></clipPath><clipPath id="a7d2540cc5"><path d="M 0.304688 0.261719 L 9.09375 0.261719 L 9.09375 18.96875 L 0.304688 18.96875 Z M 0.304688 0.261719 "/></clipPath><clipPath id="d74dd9a42f"><path d="M 0.425781 0.277344 C 0.148438 1.769531 0.511719 3.394531 1.050781 5.910156 C 1.59375 8.421875 1.285156 9.804688 1.289062 11.539062 C 1.308594 15.601562 3.542969 16.21875 3.542969 16.21875 C 2.460938 15.007812 2.808594 12.148438 2.808594 12.148438 C 5.25 18.238281 9.042969 18.902344 9.042969 18.902344 C 4.597656 15.785156 4.785156 8.628906 4.785156 8.628906 C 7.148438 9.292969 8.179688 11.84375 8.179688 11.84375 C 8.265625 9.289062 6.835938 7.148438 3.546875 5.175781 C 0.925781 3.605469 0.425781 0.28125 0.425781 0.28125 Z M 0.425781 0.277344 "/></clipPath><clipPath id="31e694b741"><rect x="0" width="10" y="0" height="19"/></clipPath><clipPath id="4cbd148e8b"><path d="M 16.335938 6.839844 L 19.238281 6.839844 L 19.238281 9.742188 L 16.335938 9.742188 Z M 16.335938 6.839844 "/></clipPath><clipPath id="0494ecb8a0"><path d="M 16.863281 7.230469 C 16.269531 7.730469 16.191406 8.613281 16.6875 9.207031 C 17.1875 9.800781 18.074219 9.878906 18.667969 9.378906 C 19.261719 8.882812 19.335938 7.996094 18.839844 7.402344 C 18.34375 6.808594 17.453125 6.730469 16.863281 7.230469 "/></clipPath><clipPath id="1d6b428be0"><path d="M 0.335938 0.839844 L 3.238281 0.839844 L 3.238281 3.742188 L 0.335938 3.742188 Z M 0.335938 0.839844 "/></clipPath><clipPath id="3a820f55f9"><path d="M 0.863281 1.230469 C 0.269531 1.730469 0.191406 2.613281 0.6875 3.207031 C 1.1875 3.800781 2.074219 3.878906 2.667969 3.378906 C 3.261719 2.882812 3.335938 1.996094 2.839844 1.402344 C 2.34375 0.808594 1.453125 0.730469 0.863281 1.230469 "/></clipPath><clipPath id="09b6ff16a6"><rect x="0" width="4" y="0" height="4"/></clipPath><clipPath id="b9b5e1602b"><path d="M 14.320312 4.90625 L 18.351562 4.90625 L 18.351562 9.5 L 14.320312 9.5 Z M 14.320312 4.90625 "/></clipPath><clipPath id="57b1d7ece7"><path d="M 15.226562 8.660156 C 15.210938 8.695312 15.214844 8.742188 15.242188 8.773438 C 15.269531 8.804688 15.3125 8.816406 15.351562 8.808594 L 15.359375 8.816406 L 15.671875 9.484375 L 16.03125 9.183594 L 15.429688 8.761719 L 15.417969 8.75 C 15.4375 8.714844 15.433594 8.667969 15.40625 8.636719 C 15.378906 8.605469 15.335938 8.59375 15.296875 8.601562 L 14.785156 8 L 15.152344 7.34375 L 14.976562 7.9375 L 15.394531 7.796875 L 16.050781 8.578125 C 15.960938 8 16.164062 7.382812 16.648438 6.980469 C 17.125 6.582031 17.75 6.484375 18.300781 6.65625 L 17.660156 5.898438 L 18.171875 4.949219 L 15.664062 5.820312 L 14.375 8.132812 L 14.695312 8.027344 L 15.226562 8.65625 "/></clipPath><clipPath id="0992db1bd5"><path d="M 0.320312 0.90625 L 4.34375 0.90625 L 4.34375 5.5 L 0.320312 5.5 Z M 0.320312 0.90625 "/></clipPath><clipPath id="6360f9fc9f"><path d="M 1.226562 4.660156 C 1.210938 4.695312 1.214844 4.742188 1.242188 4.773438 C 1.269531 4.804688 1.3125 4.816406 1.351562 4.808594 L 1.359375 4.816406 L 1.671875 5.484375 L 2.03125 5.183594 L 1.429688 4.761719 L 1.417969 4.75 C 1.4375 4.714844 1.433594 4.667969 1.40625 4.636719 C 1.378906 4.605469 1.335938 4.59375 1.296875 4.601562 L 0.785156 4 L 1.152344 3.34375 L 0.976562 3.9375 L 1.394531 3.796875 L 2.050781 4.578125 C 1.960938 4 2.164062 3.382812 2.648438 2.980469 C 3.125 2.582031 3.75 2.484375 4.300781 2.65625 L 3.660156 1.898438 L 4.171875 0.949219 L 1.664062 1.820312 L 0.375 4.132812 L 0.695312 4.027344 L 1.226562 4.65625 "/></clipPath><clipPath id="6976e5e0b7"><rect x="0" width="5" y="0" height="6"/></clipPath><clipPath id="6f2db5d0e1"><path d="M 13.191406 4.257812 L 21.980469 4.257812 L 21.980469 22.96875 L 13.191406 22.96875 Z M 13.191406 4.257812 "/></clipPath><clipPath id="05f7be6b10"><path d="M 18.734375 20.214844 C 18.734375 20.214844 20.972656 19.601562 20.988281 15.539062 C 20.996094 13.804688 20.6875 12.417969 21.226562 9.90625 C 21.765625 7.394531 22.132812 5.769531 21.855469 4.273438 C 21.855469 4.273438 21.355469 7.597656 18.734375 9.167969 C 15.441406 11.144531 14.015625 13.289062 14.097656 15.84375 C 14.097656 15.84375 15.128906 13.296875 17.496094 12.628906 C 17.496094 12.628906 17.679688 19.785156 13.234375 22.902344 C 13.234375 22.902344 17.027344 22.242188 19.46875 16.144531 C 19.46875 16.144531 19.820312 19.003906 18.734375 20.214844 "/></clipPath><clipPath id="34abb3dd56"><path d="M 0.191406 0.261719 L 8.980469 0.261719 L 8.980469 18.96875 L 0.191406 18.96875 Z M 0.191406 0.261719 "/></clipPath><clipPath id="e4870f6263"><path d="M 5.734375 16.214844 C 5.734375 16.214844 7.972656 15.601562 7.988281 11.539062 C 7.996094 9.804688 7.6875 8.417969 8.226562 5.90625 C 8.765625 3.394531 9.132812 1.769531 8.855469 0.273438 C 8.855469 0.273438 8.355469 3.597656 5.734375 5.167969 C 2.441406 7.144531 1.015625 9.289062 1.097656 11.84375 C 1.097656 11.84375 2.128906 9.296875 4.496094 8.628906 C 4.496094 8.628906 4.679688 15.785156 0.234375 18.902344 C 0.234375 18.902344 4.027344 18.242188 6.46875 12.144531 C 6.46875 12.144531 6.820312 15.003906 5.734375 16.214844 "/></clipPath><clipPath id="d510771c1b"><rect x="0" width="9" y="0" height="19"/></clipPath><clipPath id="d2ae3d6c2b"><path d="M 20.449219 0.628906 L 23.753906 0.628906 L 23.753906 4 L 20.449219 4 Z M 20.449219 0.628906 "/></clipPath><clipPath id="1050984347"><path d="M 22.078125 3.613281 L 22.132812 3.945312 L 22.175781 3.609375 C 22.265625 2.957031 22.769531 2.441406 23.421875 2.34375 L 23.75 2.292969 L 23.417969 2.246094 C 22.765625 2.160156 22.25 1.65625 22.152344 1.003906 L 22.101562 0.671875 L 22.058594 1.007812 C 21.96875 1.660156 21.464844 2.175781 20.8125 2.273438 L 20.484375 2.324219 L 20.816406 2.371094 C 21.46875 2.457031 21.984375 2.964844 22.082031 3.613281 "/></clipPath><clipPath id="be871acd06"><path d="M 0.472656 0.628906 L 3.753906 0.628906 L 3.753906 4 L 0.472656 4 Z M 0.472656 0.628906 "/></clipPath><clipPath id="9234c977e3"><path d="M 2.078125 3.613281 L 2.132812 3.945312 L 2.175781 3.609375 C 2.265625 2.957031 2.769531 2.441406 3.421875 2.34375 L 3.75 2.292969 L 3.417969 2.246094 C 2.765625 2.160156 2.25 1.65625 2.152344 1.003906 L 2.101562 0.671875 L 2.058594 1.007812 C 1.96875 1.660156 1.464844 2.175781 0.8125 2.273438 L 0.484375 2.324219 L 0.816406 2.371094 C 1.46875 2.457031 1.984375 2.964844 2.082031 3.613281 "/></clipPath><clipPath id="aa14bc2694"><rect x="0" width="4" y="0" height="4"/></clipPath><clipPath id="5fd6576c9d"><path d="M 0.578125 7 L 91.761719 7 L 91.761719 35.527344 L 0.578125 35.527344 Z M 0.578125 7 "/></clipPath><clipPath id="380679b49d"><path d="M 1 0.105469 L 13 0.105469 L 13 16 L 1 16 Z M 1 0.105469 "/></clipPath><clipPath id="45926ea5fe"><path d="M 33 0.105469 L 47 0.105469 L 47 16 L 33 16 Z M 33 0.105469 "/></clipPath><clipPath id="67040977e3"><path d="M 48 0.105469 L 61 0.105469 L 61 16 L 48 16 Z M 48 0.105469 "/></clipPath><clipPath id="ff68c67c97"><path d="M 63 0.105469 L 77 0.105469 L 77 16 L 63 16 Z M 63 0.105469 "/></clipPath><clipPath id="50a7ac57a4"><path d="M 79 0.105469 L 91 0.105469 L 91 16 L 79 16 Z M 79 0.105469 "/></clipPath><clipPath id="b6ee6c567c"><path d="M 36 23 L 42 23 L 42 28.527344 L 36 28.527344 Z M 36 23 "/></clipPath><clipPath id="8e04a19b52"><path d="M 68 21 L 70 21 L 70 28.527344 L 68 28.527344 Z M 68 21 "/></clipPath><clipPath id="2142415755"><rect x="0" width="92" y="0" height="29"/></clipPath><clipPath id="3c24d07800"><rect x="0" width="92" y="0" height="36"/></clipPath></defs><g id="9e0edc550f"><g transform="matrix(1,0,0,1,13,-0.000000000000001478)"><g clip-path="url(#3c24d07800)"><g clip-rule="nonzero" clip-path="url(#85027b0848)"><g clip-rule="nonzero" clip-path="url(#60fa5d12e3)"><g transform="matrix(1,0,0,1,25,6)"><g id="6ea83274a9" clip-path="url(#66bbd143cc)"><g clip-rule="nonzero" clip-path="url(#e22c791216)"><g clip-rule="nonzero" clip-path="url(#3d66a84cac)"><rect x="0" width="3" y="0" height="4" style="fill:#2a2e30;fill-opacity:1;stroke:none;"/></g></g></g></g></g></g><g clip-rule="nonzero" clip-path="url(#f1c73bcb0f)"><g clip-rule="nonzero" clip-path="url(#e41c7a546e)"><g transform="matrix(1,0,0,1,25,4)"><g id="624d73ac52" clip-path="url(#d25850e1a9)"><g clip-rule="nonzero" clip-path="url(#ba1c3d0d78)"><g clip-rule="nonzero" clip-path="url(#60f24889bf)"><rect x="0" width="5" y="0" height="6" style="fill:#2a2e30;fill-opacity:1;stroke:none;"/></g></g></g></g></g></g><g clip-rule="nonzero" clip-path="url(#cbb0836399)"><g clip-rule="nonzero" clip-path="url(#5677ec858d)"><g transform="matrix(1,0,0,1,22,4)"><g id="d4354a760d" clip-path="url(#31e694b741)"><g clip-rule="nonzero" clip-path="url(#a7d2540cc5)"><g clip-rule="nonzero" clip-path="url(#d74dd9a42f)"><rect x="0" width="10" y="0" height="19" style="fill:#2a2e30;fill-opacity:1;stroke:none;"/></g></g></g></g></g></g><g clip-rule="nonzero" clip-path="url(#4cbd148e8b)"><g clip-rule="nonzero" clip-path="url(#0494ecb8a0)"><g transform="matrix(1,0,0,1,16,6)"><g id="636258b7a0" clip-path="url(#09b6ff16a6)"><g clip-rule="nonzero" clip-path="url(#1d6b428be0)"><g clip-rule="nonzero" clip-path="url(#3a820f55f9)"><rect x="0" width="4" y="0" height="4" style="fill:#fba319;fill-opacity:1;stroke:none;"/></g></g></g></g></g></g><g clip-rule="nonzero" clip-path="url(#b9b5e1602b)"><g clip-rule="nonzero" clip-path="url(#57b1d7ece7)"><g transform="matrix(1,0,0,1,14,4)"><g id="4235d31dc3" clip-path="url(#6976e5e0b7)"><g clip-rule="nonzero" clip-path="url(#0992db1bd5)"><g clip-rule="nonzero" clip-path="url(#6360f9fc9f)"><rect x="0" width="5" y="0" height="6" style="fill:#fba319;fill-opacity:1;stroke:none;"/></g></g></g></g></g></g><g clip-rule="nonzero" clip-path="url(#6f2db5d0e1)"><g clip-rule="nonzero" clip-path="url(#05f7be6b10)"><g transform="matrix(1,0,0,1,13,4)"><g id="09ec00a4be" clip-path="url(#d510771c1b)"><g clip-rule="nonzero" clip-path="url(#34abb3dd56)"><g clip-rule="nonzero" clip-path="url(#e4870f6263)"><rect x="0" width="9" y="0" height="19" style="fill:#fba319;fill-opacity:1;stroke:none;"/></g></g></g></g></g></g><g clip-rule="nonzero" clip-path="url(#d2ae3d6c2b)"><g clip-rule="nonzero" clip-path="url(#1050984347)"><g transform="matrix(1,0,0,1,20,-0.000000000000001499)"><g id="6f972481ef" clip-path="url(#aa14bc2694)"><g clip-rule="nonzero" clip-path="url(#be871acd06)"><g clip-rule="nonzero" clip-path="url(#9234c977e3)"><rect x="0" width="4" y="0" height="4" style="fill:#f6921e;fill-opacity:1;stroke:none;"/></g></g></g></g></g></g><g clip-rule="nonzero" clip-path="url(#5fd6576c9d)"><g transform="matrix(1,0,0,1,0,7)"><g id="e5f22eb29a" clip-path="url(#2142415755)"><g clip-rule="nonzero" clip-path="url(#380679b49d)"><g style="fill:#264790;fill-opacity:1;"><g transform="translate(0.702015, 15.66584)"><path style="stroke:none" d="M 12 -14.9375 L 12 -11.921875 L 7.84375 -11.921875 L 7.84375 0 L 4.609375 0 L 4.609375 -11.921875 L 0.46875 -11.921875 L 0.46875 -14.9375 Z M 12 -14.9375 "/></g></g></g><g style="fill:#264790;fill-opacity:1;"><g transform="translate(13.15534, 15.66584)"><path style="stroke:none" d=""/></g></g><g style="fill:#264790;fill-opacity:1;"><g transform="translate(18.250518, 15.66584)"><path style="stroke:none" d=""/></g></g><g style="fill:#264790;fill-opacity:1;"><g transform="translate(23.345696, 15.66584)"><path style="stroke:none" d=""/></g></g><g style="fill:#264790;fill-opacity:1;"><g transform="translate(28.440874, 15.66584)"><path style="stroke:none" d=""/></g></g><g clip-rule="nonzero" clip-path="url(#45926ea5fe)"><g style="fill:#264790;fill-opacity:1;"><g transform="translate(33.536518, 15.66584)"><path style="stroke:none" d="M 13.265625 0 L 9.640625 0 L 6.703125 -5.125 L 3.71875 0 L 0.078125 0 L 4.734375 -7.828125 L 0.390625 -14.9375 L 4.015625 -14.9375 L 6.671875 -10.328125 L 9.359375 -14.9375 L 12.90625 -14.9375 L 8.609375 -7.71875 Z M 13.265625 0 "/></g></g></g><g clip-rule="nonzero" clip-path="url(#67040977e3)"><g style="fill:#264790;fill-opacity:1;"><g transform="translate(46.860723, 15.66584)"><path style="stroke:none" d="M 10.5625 -14.9375 L 13.78125 -14.9375 L 13.78125 0 L 10.5625 0 L 10.5625 -6.15625 L 4.953125 -6.15625 L 4.953125 0 L 1.703125 0 L 1.703125 -14.9375 L 4.953125 -14.9375 L 4.953125 -9.171875 L 10.5625 -9.171875 Z M 10.5625 -14.9375 "/></g></g></g><g clip-rule="nonzero" clip-path="url(#ff68c67c97)"><g style="fill:#264790;fill-opacity:1;"><g transform="translate(62.359441, 15.66584)"><path style="stroke:none" d="M 7.71875 0.3125 C 6.539062 0.3125 5.488281 0.0625 4.5625 -0.4375 C 3.632812 -0.9375 2.898438 -1.628906 2.359375 -2.515625 C 1.828125 -3.410156 1.5625 -4.441406 1.5625 -5.609375 L 1.5625 -14.9375 L 4.796875 -14.9375 L 4.796875 -5.765625 C 4.796875 -4.835938 5.066406 -4.097656 5.609375 -3.546875 C 6.160156 -3.003906 6.863281 -2.734375 7.71875 -2.734375 C 8.582031 -2.734375 9.289062 -3.003906 9.84375 -3.546875 C 10.394531 -4.097656 10.671875 -4.835938 10.671875 -5.765625 L 10.671875 -14.9375 L 13.890625 -14.9375 L 13.890625 -5.609375 C 13.890625 -4.441406 13.617188 -3.410156 13.078125 -2.515625 C 12.546875 -1.628906 11.8125 -0.9375 10.875 -0.4375 C 9.945312 0.0625 8.894531 0.3125 7.71875 0.3125 Z M 7.71875 0.3125 "/></g></g></g><g clip-rule="nonzero" clip-path="url(#50a7ac57a4)"><g style="fill:#264790;fill-opacity:1;"><g transform="translate(77.794203, 15.66584)"><path style="stroke:none" d="M 10.6875 -7.875 C 11.34375 -7.53125 11.847656 -7.046875 12.203125 -6.421875 C 12.566406 -5.804688 12.75 -5.101562 12.75 -4.3125 C 12.75 -3.507812 12.539062 -2.78125 12.125 -2.125 C 11.707031 -1.476562 11.140625 -0.960938 10.421875 -0.578125 C 9.703125 -0.191406 8.914062 0 8.0625 0 L 1.703125 0 L 1.703125 -14.9375 L 7.890625 -14.9375 C 8.742188 -14.9375 9.507812 -14.765625 10.1875 -14.421875 C 10.863281 -14.085938 11.394531 -13.628906 11.78125 -13.046875 C 12.175781 -12.460938 12.375 -11.8125 12.375 -11.09375 C 12.375 -10.445312 12.222656 -9.835938 11.921875 -9.265625 C 11.617188 -8.703125 11.207031 -8.238281 10.6875 -7.875 Z M 9.234375 -10.578125 C 9.234375 -11.046875 9.082031 -11.425781 8.78125 -11.71875 C 8.488281 -12.019531 8.085938 -12.171875 7.578125 -12.171875 L 4.890625 -12.171875 L 4.890625 -9 L 7.578125 -9 C 8.085938 -9 8.488281 -9.144531 8.78125 -9.4375 C 9.082031 -9.738281 9.234375 -10.117188 9.234375 -10.578125 Z M 7.734375 -2.96875 C 8.273438 -2.96875 8.707031 -3.125 9.03125 -3.4375 C 9.351562 -3.75 9.515625 -4.15625 9.515625 -4.65625 C 9.515625 -5.132812 9.351562 -5.53125 9.03125 -5.84375 C 8.707031 -6.15625 8.273438 -6.3125 7.734375 -6.3125 L 4.890625 -6.3125 L 4.890625 -2.96875 Z M 7.734375 -2.96875 "/></g></g></g><g style="fill:#264790;fill-opacity:1;"><g transform="translate(0.702015, 26.903317)"><path style="stroke:none" d="M 1.578125 -0.953125 L 3.46875 -0.953125 L 3.46875 0 L 0.546875 0 L 0.546875 -4.75 L 3.390625 -4.75 L 3.390625 -3.8125 L 1.578125 -3.8125 L 1.578125 -2.875 L 3.21875 -2.875 L 3.21875 -1.9375 L 1.578125 -1.9375 Z M 1.578125 -0.953125 "/></g></g><g style="fill:#264790;fill-opacity:1;"><g transform="translate(4.755715, 26.903317)"><path style="stroke:none" d="M 3.703125 0 L 2.578125 0 L 1.84375 -1.21875 L 1.09375 0 L 0 0 L 1.25 -1.875 L 0.09375 -3.671875 L 1.203125 -3.671875 L 1.84375 -2.609375 L 2.53125 -3.671875 L 3.625 -3.671875 L 2.4375 -1.9375 Z M 3.703125 0 "/></g></g><g style="fill:#264790;fill-opacity:1;"><g transform="translate(8.714197, 26.903317)"><path style="stroke:none" d="M 2.1875 0.109375 C 1.8125 0.109375 1.476562 0.0195312 1.1875 -0.15625 C 0.894531 -0.332031 0.660156 -0.566406 0.484375 -0.859375 C 0.316406 -1.148438 0.234375 -1.476562 0.234375 -1.84375 C 0.234375 -2.21875 0.316406 -2.546875 0.484375 -2.828125 C 0.660156 -3.117188 0.894531 -3.347656 1.1875 -3.515625 C 1.476562 -3.679688 1.8125 -3.765625 2.1875 -3.765625 C 2.507812 -3.765625 2.800781 -3.703125 3.0625 -3.578125 C 3.320312 -3.453125 3.535156 -3.273438 3.703125 -3.046875 C 3.878906 -2.828125 4 -2.566406 4.0625 -2.265625 L 3.078125 -2.265625 C 2.992188 -2.453125 2.875 -2.59375 2.71875 -2.6875 C 2.5625 -2.789062 2.382812 -2.84375 2.1875 -2.84375 C 2.007812 -2.84375 1.847656 -2.796875 1.703125 -2.703125 C 1.554688 -2.617188 1.441406 -2.5 1.359375 -2.34375 C 1.285156 -2.195312 1.25 -2.03125 1.25 -1.84375 C 1.25 -1.65625 1.285156 -1.484375 1.359375 -1.328125 C 1.441406 -1.171875 1.554688 -1.046875 1.703125 -0.953125 C 1.847656 -0.867188 2.007812 -0.828125 2.1875 -0.828125 C 2.382812 -0.828125 2.554688 -0.878906 2.703125 -0.984375 C 2.859375 -1.097656 2.984375 -1.253906 3.078125 -1.453125 L 4.078125 -1.453125 C 4.015625 -1.140625 3.894531 -0.863281 3.71875 -0.625 C 3.539062 -0.394531 3.320312 -0.210938 3.0625 -0.078125 C 2.800781 0.046875 2.507812 0.109375 2.1875 0.109375 Z M 2.1875 0.109375 "/></g></g><g style="fill:#264790;fill-opacity:1;"><g transform="translate(13.216794, 26.903317)"><path style="stroke:none" d="M 0.46875 0 L 0.46875 -5 L 1.46875 -5 L 1.46875 0 Z M 0.46875 0 "/></g></g><g style="fill:#264790;fill-opacity:1;"><g transform="translate(15.413703, 26.903317)"><path style="stroke:none" d="M 2.15625 0.109375 C 1.8125 0.109375 1.507812 0.0390625 1.25 -0.09375 C 0.988281 -0.238281 0.785156 -0.429688 0.640625 -0.671875 C 0.492188 -0.921875 0.421875 -1.210938 0.421875 -1.546875 L 0.421875 -3.671875 L 1.421875 -3.671875 L 1.421875 -1.671875 C 1.421875 -1.398438 1.484375 -1.191406 1.609375 -1.046875 C 1.742188 -0.898438 1.925781 -0.828125 2.15625 -0.828125 C 2.382812 -0.828125 2.5625 -0.898438 2.6875 -1.046875 C 2.8125 -1.203125 2.875 -1.410156 2.875 -1.671875 L 2.875 -3.671875 L 3.875 -3.671875 L 3.875 -1.546875 C 3.875 -1.210938 3.800781 -0.921875 3.65625 -0.671875 C 3.519531 -0.429688 3.320312 -0.238281 3.0625 -0.09375 C 2.800781 0.0390625 2.5 0.109375 2.15625 0.109375 Z M 2.15625 0.109375 "/></g></g><g style="fill:#264790;fill-opacity:1;"><g transform="translate(19.970711, 26.903317)"><path style="stroke:none" d="M 1.78125 0.109375 C 1.46875 0.109375 1.195312 0.0546875 0.96875 -0.046875 C 0.738281 -0.160156 0.554688 -0.316406 0.421875 -0.515625 C 0.296875 -0.710938 0.234375 -0.941406 0.234375 -1.203125 L 1.203125 -1.203125 C 1.203125 -1.046875 1.257812 -0.925781 1.375 -0.84375 C 1.488281 -0.757812 1.632812 -0.71875 1.8125 -0.71875 C 1.957031 -0.71875 2.082031 -0.75 2.1875 -0.8125 C 2.289062 -0.875 2.34375 -0.96875 2.34375 -1.09375 C 2.34375 -1.21875 2.269531 -1.304688 2.125 -1.359375 C 1.988281 -1.410156 1.820312 -1.453125 1.625 -1.484375 C 1.476562 -1.503906 1.328125 -1.535156 1.171875 -1.578125 C 1.015625 -1.617188 0.867188 -1.675781 0.734375 -1.75 C 0.609375 -1.832031 0.503906 -1.941406 0.421875 -2.078125 C 0.335938 -2.210938 0.296875 -2.390625 0.296875 -2.609375 C 0.296875 -2.835938 0.359375 -3.039062 0.484375 -3.21875 C 0.609375 -3.394531 0.78125 -3.53125 1 -3.625 C 1.21875 -3.71875 1.476562 -3.765625 1.78125 -3.765625 C 2.070312 -3.765625 2.328125 -3.710938 2.546875 -3.609375 C 2.765625 -3.515625 2.9375 -3.375 3.0625 -3.1875 C 3.1875 -3.007812 3.25 -2.796875 3.25 -2.546875 L 2.296875 -2.546875 C 2.296875 -2.691406 2.25 -2.800781 2.15625 -2.875 C 2.0625 -2.945312 1.925781 -2.984375 1.75 -2.984375 C 1.59375 -2.984375 1.472656 -2.945312 1.390625 -2.875 C 1.304688 -2.8125 1.265625 -2.726562 1.265625 -2.625 C 1.265625 -2.507812 1.332031 -2.425781 1.46875 -2.375 C 1.601562 -2.332031 1.765625 -2.296875 1.953125 -2.265625 C 2.109375 -2.234375 2.265625 -2.195312 2.421875 -2.15625 C 2.578125 -2.125 2.722656 -2.066406 2.859375 -1.984375 C 2.992188 -1.910156 3.101562 -1.804688 3.1875 -1.671875 C 3.269531 -1.535156 3.3125 -1.359375 3.3125 -1.140625 C 3.3125 -0.890625 3.25 -0.671875 3.125 -0.484375 C 3 -0.296875 2.820312 -0.148438 2.59375 -0.046875 C 2.363281 0.0546875 2.09375 0.109375 1.78125 0.109375 Z M 1.78125 0.109375 "/></g></g><g style="fill:#264790;fill-opacity:1;"><g transform="translate(23.793162, 26.903317)"><path style="stroke:none" d="M 0.46875 -4.15625 L 0.46875 -5.078125 L 1.46875 -5.078125 L 1.46875 -4.15625 Z M 0.46875 0 L 0.46875 -3.671875 L 1.46875 -3.671875 L 1.46875 0 Z M 0.46875 0 "/></g></g><g style="fill:#264790;fill-opacity:1;"><g transform="translate(25.990072, 26.903317)"><path style="stroke:none" d="M 2.875 -3.671875 L 3.921875 -3.671875 L 2.453125 0 L 1.53125 0 L 0.046875 -3.671875 L 1.09375 -3.671875 L 2 -1.203125 Z M 2.875 -3.671875 "/></g></g><g style="fill:#264790;fill-opacity:1;"><g transform="translate(30.213809, 26.903317)"><path style="stroke:none" d="M 4.03125 -1.84375 C 4.03125 -1.75 4.023438 -1.65625 4.015625 -1.5625 L 1.25 -1.5625 C 1.289062 -1.3125 1.390625 -1.117188 1.546875 -0.984375 C 1.703125 -0.847656 1.898438 -0.78125 2.140625 -0.78125 C 2.316406 -0.78125 2.472656 -0.816406 2.609375 -0.890625 C 2.742188 -0.960938 2.847656 -1.066406 2.921875 -1.203125 L 3.96875 -1.203125 C 3.832031 -0.804688 3.597656 -0.488281 3.265625 -0.25 C 2.941406 -0.0078125 2.566406 0.109375 2.140625 0.109375 C 1.773438 0.109375 1.445312 0.0234375 1.15625 -0.140625 C 0.875 -0.316406 0.648438 -0.550781 0.484375 -0.84375 C 0.316406 -1.132812 0.234375 -1.460938 0.234375 -1.828125 C 0.234375 -2.203125 0.316406 -2.535156 0.484375 -2.828125 C 0.648438 -3.117188 0.875 -3.347656 1.15625 -3.515625 C 1.445312 -3.679688 1.773438 -3.765625 2.140625 -3.765625 C 2.515625 -3.765625 2.84375 -3.675781 3.125 -3.5 C 3.414062 -3.332031 3.640625 -3.101562 3.796875 -2.8125 C 3.953125 -2.519531 4.03125 -2.195312 4.03125 -1.84375 Z M 2.140625 -2.921875 C 1.921875 -2.921875 1.734375 -2.859375 1.578125 -2.734375 C 1.429688 -2.617188 1.328125 -2.453125 1.265625 -2.234375 L 3.046875 -2.234375 C 2.898438 -2.691406 2.597656 -2.921875 2.140625 -2.921875 Z M 2.140625 -2.921875 "/></g></g><g style="fill:#264790;fill-opacity:1;"><g transform="translate(34.73681, 26.903317)"><path style="stroke:none" d="M 0.46875 0 L 0.46875 -5 L 1.46875 -5 L 1.46875 0 Z M 0.46875 0 "/></g></g><g clip-rule="nonzero" clip-path="url(#b6ee6c567c)"><g style="fill:#264790;fill-opacity:1;"><g transform="translate(36.93372, 26.903317)"><path style="stroke:none" d="M 3.015625 -3.671875 L 4.078125 -3.671875 L 2.46875 -0.046875 C 2.320312 0.285156 2.171875 0.550781 2.015625 0.75 C 1.867188 0.945312 1.703125 1.09375 1.515625 1.1875 C 1.328125 1.28125 1.09375 1.328125 0.8125 1.328125 L 0.40625 1.328125 L 0.40625 0.421875 L 0.75 0.421875 C 0.914062 0.421875 1.039062 0.398438 1.125 0.359375 C 1.21875 0.328125 1.296875 0.265625 1.359375 0.171875 C 1.429688 0.078125 1.503906 -0.0625 1.578125 -0.25 L 1.59375 -0.28125 L 0.046875 -3.671875 L 1.125 -3.671875 L 2.09375 -1.40625 Z M 3.015625 -3.671875 "/></g></g></g><g style="fill:#264790;fill-opacity:1;"><g transform="translate(41.279883, 26.903317)"><path style="stroke:none" d=""/></g></g><g style="fill:#264790;fill-opacity:1;"><g transform="translate(43.157124, 26.903317)"><path style="stroke:none" d="M 2.71875 -3.625 L 2.71875 -2.796875 L 1.796875 -2.796875 L 1.796875 0 L 0.8125 0 L 0.8125 -2.796875 L 0.171875 -2.796875 L 0.171875 -3.625 L 0.8125 -3.625 L 0.8125 -3.953125 C 0.8125 -4.304688 0.910156 -4.585938 1.109375 -4.796875 C 1.304688 -5.003906 1.597656 -5.109375 1.984375 -5.109375 L 2.71875 -5.109375 L 2.71875 -4.328125 L 2.171875 -4.328125 C 1.910156 -4.328125 1.78125 -4.191406 1.78125 -3.921875 L 1.78125 -3.625 Z M 2.71875 -3.625 "/></g></g><g style="fill:#264790;fill-opacity:1;"><g transform="translate(46.231418, 26.903317)"><path style="stroke:none" d="M 2.21875 0.109375 C 1.84375 0.109375 1.503906 0.0234375 1.203125 -0.140625 C 0.898438 -0.316406 0.660156 -0.550781 0.484375 -0.84375 C 0.316406 -1.132812 0.234375 -1.460938 0.234375 -1.828125 C 0.234375 -2.203125 0.316406 -2.535156 0.484375 -2.828125 C 0.660156 -3.117188 0.898438 -3.347656 1.203125 -3.515625 C 1.503906 -3.679688 1.84375 -3.765625 2.21875 -3.765625 C 2.59375 -3.765625 2.929688 -3.679688 3.234375 -3.515625 C 3.535156 -3.347656 3.769531 -3.117188 3.9375 -2.828125 C 4.113281 -2.535156 4.203125 -2.203125 4.203125 -1.828125 C 4.203125 -1.460938 4.113281 -1.132812 3.9375 -0.84375 C 3.769531 -0.550781 3.535156 -0.316406 3.234375 -0.140625 C 2.929688 0.0234375 2.59375 0.109375 2.21875 0.109375 Z M 2.21875 -0.828125 C 2.507812 -0.828125 2.742188 -0.921875 2.921875 -1.109375 C 3.097656 -1.296875 3.1875 -1.535156 3.1875 -1.828125 C 3.1875 -2.128906 3.097656 -2.375 2.921875 -2.5625 C 2.742188 -2.75 2.507812 -2.84375 2.21875 -2.84375 C 1.925781 -2.84375 1.691406 -2.75 1.515625 -2.5625 C 1.335938 -2.375 1.25 -2.128906 1.25 -1.828125 C 1.25 -1.535156 1.335938 -1.296875 1.515625 -1.109375 C 1.691406 -0.921875 1.925781 -0.828125 2.21875 -0.828125 Z M 2.21875 -0.828125 "/></g></g><g style="fill:#264790;fill-opacity:1;"><g transform="translate(50.924453, 26.903317)"><path style="stroke:none" d="M 2.359375 -3.6875 L 2.671875 -3.6875 L 2.671875 -2.75 L 2.25 -2.75 C 1.96875 -2.75 1.765625 -2.679688 1.640625 -2.546875 C 1.523438 -2.421875 1.46875 -2.207031 1.46875 -1.90625 L 1.46875 0 L 0.46875 0 L 0.46875 -3.671875 L 1.109375 -3.671875 L 1.296875 -3.21875 C 1.546875 -3.53125 1.898438 -3.6875 2.359375 -3.6875 Z M 2.359375 -3.6875 "/></g></g><g style="fill:#264790;fill-opacity:1;"><g transform="translate(53.944336, 26.903317)"><path style="stroke:none" d=""/></g></g><g style="fill:#264790;fill-opacity:1;"><g transform="translate(55.821573, 26.903317)"><path style="stroke:none" d="M 2.71875 0.109375 C 2.375 0.109375 2.050781 0.046875 1.75 -0.078125 C 1.457031 -0.203125 1.195312 -0.375 0.96875 -0.59375 C 0.75 -0.820312 0.578125 -1.085938 0.453125 -1.390625 C 0.328125 -1.691406 0.265625 -2.019531 0.265625 -2.375 C 0.265625 -2.726562 0.328125 -3.054688 0.453125 -3.359375 C 0.578125 -3.660156 0.75 -3.921875 0.96875 -4.140625 C 1.195312 -4.367188 1.457031 -4.546875 1.75 -4.671875 C 2.050781 -4.796875 2.375 -4.859375 2.71875 -4.859375 C 3.101562 -4.859375 3.457031 -4.78125 3.78125 -4.625 C 4.101562 -4.46875 4.375 -4.242188 4.59375 -3.953125 C 4.8125 -3.671875 4.957031 -3.34375 5.03125 -2.96875 L 4 -2.96875 C 3.90625 -3.25 3.742188 -3.46875 3.515625 -3.625 C 3.285156 -3.789062 3.019531 -3.875 2.71875 -3.875 C 2.457031 -3.875 2.21875 -3.804688 2 -3.671875 C 1.789062 -3.546875 1.625 -3.367188 1.5 -3.140625 C 1.375 -2.910156 1.3125 -2.65625 1.3125 -2.375 C 1.3125 -2.082031 1.375 -1.820312 1.5 -1.59375 C 1.625 -1.375 1.789062 -1.195312 2 -1.0625 C 2.21875 -0.9375 2.457031 -0.875 2.71875 -0.875 C 3.03125 -0.875 3.300781 -0.960938 3.53125 -1.140625 C 3.757812 -1.316406 3.914062 -1.554688 4 -1.859375 L 5.046875 -1.859375 C 4.972656 -1.460938 4.828125 -1.117188 4.609375 -0.828125 C 4.390625 -0.535156 4.117188 -0.304688 3.796875 -0.140625 C 3.472656 0.0234375 3.113281 0.109375 2.71875 0.109375 Z M 2.71875 0.109375 "/></g></g><g style="fill:#264790;fill-opacity:1;"><g transform="translate(61.317183, 26.903317)"><path style="stroke:none" d="M 3.703125 0 L 3.375 -0.90625 L 1.46875 -0.90625 L 1.15625 0 L 0.0625 0 L 1.921875 -4.75 L 2.890625 -4.75 L 4.8125 0 Z M 2.421875 -3.5 L 1.796875 -1.796875 L 3.046875 -1.796875 Z M 2.421875 -3.5 "/></g></g><g style="fill:#264790;fill-opacity:1;"><g transform="translate(66.452317, 26.903317)"><path style="stroke:none" d=""/></g></g><g clip-rule="nonzero" clip-path="url(#8e04a19b52)"><g style="fill:#264790;fill-opacity:1;"><g transform="translate(68.329554, 26.903317)"><path style="stroke:none" d="M 0.546875 1.296875 L 0.546875 -5.703125 L 1.46875 -5.703125 L 1.46875 1.296875 Z M 0.546875 1.296875 "/></g></g></g><g style="fill:#264790;fill-opacity:1;"><g transform="translate(70.608084, 26.903317)"><path style="stroke:none" d=""/></g></g><g style="fill:#264790;fill-opacity:1;"><g transform="translate(72.485321, 26.903317)"><path style="stroke:none" d="M 2.71875 0.109375 C 2.375 0.109375 2.050781 0.046875 1.75 -0.078125 C 1.457031 -0.203125 1.195312 -0.375 0.96875 -0.59375 C 0.75 -0.820312 0.578125 -1.085938 0.453125 -1.390625 C 0.328125 -1.691406 0.265625 -2.019531 0.265625 -2.375 C 0.265625 -2.726562 0.328125 -3.054688 0.453125 -3.359375 C 0.578125 -3.660156 0.75 -3.921875 0.96875 -4.140625 C 1.195312 -4.367188 1.457031 -4.546875 1.75 -4.671875 C 2.050781 -4.796875 2.375 -4.859375 2.71875 -4.859375 C 3.101562 -4.859375 3.457031 -4.78125 3.78125 -4.625 C 4.101562 -4.46875 4.375 -4.242188 4.59375 -3.953125 C 4.8125 -3.671875 4.957031 -3.34375 5.03125 -2.96875 L 4 -2.96875 C 3.90625 -3.25 3.742188 -3.46875 3.515625 -3.625 C 3.285156 -3.789062 3.019531 -3.875 2.71875 -3.875 C 2.457031 -3.875 2.21875 -3.804688 2 -3.671875 C 1.789062 -3.546875 1.625 -3.367188 1.5 -3.140625 C 1.375 -2.910156 1.3125 -2.65625 1.3125 -2.375 C 1.3125 -2.082031 1.375 -1.820312 1.5 -1.59375 C 1.625 -1.375 1.789062 -1.195312 2 -1.0625 C 2.21875 -0.9375 2.457031 -0.875 2.71875 -0.875 C 3.03125 -0.875 3.300781 -0.960938 3.53125 -1.140625 C 3.757812 -1.316406 3.914062 -1.554688 4 -1.859375 L 5.046875 -1.859375 C 4.972656 -1.460938 4.828125 -1.117188 4.609375 -0.828125 C 4.390625 -0.535156 4.117188 -0.304688 3.796875 -0.140625 C 3.472656 0.0234375 3.113281 0.109375 2.71875 0.109375 Z M 2.71875 0.109375 "/></g></g><g style="fill:#264790;fill-opacity:1;"><g transform="translate(77.980931, 26.903317)"><path style="stroke:none" d="M 6.375 0 L 5.328125 0 L 4.859375 -3.109375 L 3.4375 0 L 3.1875 0 L 1.765625 -3.109375 L 1.296875 0 L 0.25 0 L 1 -4.75 L 2.03125 -4.75 L 3.3125 -1.84375 L 4.59375 -4.75 L 5.640625 -4.75 Z M 6.375 0 "/></g></g><g style="fill:#264790;fill-opacity:1;"><g transform="translate(84.864027, 26.903317)"><path style="stroke:none" d="M 3.703125 0 L 3.375 -0.90625 L 1.46875 -0.90625 L 1.15625 0 L 0.0625 0 L 1.921875 -4.75 L 2.890625 -4.75 L 4.8125 0 Z M 2.421875 -3.5 L 1.796875 -1.796875 L 3.046875 -1.796875 Z M 2.421875 -3.5 "/></g></g></g></g></g></g></g></g></svg>